STARTFONT 2.1
FONT -Monotype-Plantin-Regular-I-Normal--12-120-75-75-P-70-iso8859-5
SIZE 12 75 75
FONTBOUNDINGBOX 17 15 -2 -3

STARTPROPERTIES 24
FOUNDRY "Monotype"
FAMILY_NAME "Plantin"
WEIGHT_NAME "Regular"
SLANT "I"
SETWIDTH_NAME "Normal"
ADD_STYLE_NAME ""
PIXEL_SIZE 12
POINT_SIZE 120
RESOLUTION_X 75
RESOLUTION_Y 75
SPACING "P"
AVERAGE_WIDTH 70
CHARSET_REGISTRY "iso8859"
CHARSET_ENCODING "5"
FACE_NAME "Plantin Inclined ISO Latin Cyrillic"
_DEC_DEVICE_FONTNAMES "PS=plantin-in-latcyrillic"
COPYRIGHT "Copyright (c) 1994 Monotype Typography Ltd."
CAP_HEIGHT 10
X_HEIGHT 6
WEIGHT 10
QUAD_WIDTH 9
DEFAULT_CHAR 160
FONT_DESCENT 3
FONT_ASCENT 12
ENDPROPERTIES

CHARS 191

STARTCHAR space
ENCODING 32
SWIDTH 250 0
DWIDTH 3 0
BBX 0 0 0 0
BITMAP
ENDCHAR

STARTCHAR exclam
ENCODING 33
SWIDTH 312 0
DWIDTH 4 0
BBX 3 9 1 0
BITMAP
20
20
20
40
40
40
00
80
80
ENDCHAR

STARTCHAR quotedbl
ENCODING 34
SWIDTH 417 0
DWIDTH 5 0
BBX 4 4 1 5
BITMAP
50
50
A0
A0
ENDCHAR

STARTCHAR numbersign
ENCODING 35
SWIDTH 500 0
DWIDTH 7 0
BBX 7 9 0 0
BITMAP
14
14
7E
28
28
28
FC
50
50
ENDCHAR

STARTCHAR dollar
ENCODING 36
SWIDTH 490 0
DWIDTH 6 0
BBX 7 10 0 -1
BITMAP
14
3E
54
54
38
2C
AC
A8
70
50
ENDCHAR

STARTCHAR percent
ENCODING 37
SWIDTH 729 0
DWIDTH 9 0
BBX 9 9 0 0
BITMAP
2200
5200
9400
A400
4900
1280
1480
2500
2200
ENDCHAR

STARTCHAR ampersand
ENCODING 38
SWIDTH 948 0
DWIDTH 12 0
BBX 12 9 1 0
BITMAP
1C00
2200
2020
3310
44E0
8280
8080
4100
3E00
ENDCHAR

STARTCHAR quoteright
ENCODING 39
SWIDTH 313 0
DWIDTH 4 0
BBX 3 3 1 6
BITMAP
60
20
C0
ENDCHAR

STARTCHAR parenleft
ENCODING 40
SWIDTH 448 0
DWIDTH 6 0
BBX 6 12 1 -3
BITMAP
0C
10
20
40
40
80
80
80
80
80
40
20
ENDCHAR

STARTCHAR parenright
ENCODING 41
SWIDTH 437 0
DWIDTH 6 0
BBX 6 12 -1 -3
BITMAP
10
08
04
04
04
04
04
08
08
10
20
C0
ENDCHAR

STARTCHAR asterisk
ENCODING 42
SWIDTH 521 0
DWIDTH 7 0
BBX 7 5 0 4
BITMAP
10
D6
38
D6
10
ENDCHAR

STARTCHAR plus
ENCODING 43
SWIDTH 667 0
DWIDTH 9 0
BBX 7 7 1 1
BITMAP
10
10
10
FE
10
10
10
ENDCHAR

STARTCHAR comma
ENCODING 44
SWIDTH 313 0
DWIDTH 4 0
BBX 3 3 1 -2
BITMAP
60
20
C0
ENDCHAR

STARTCHAR minus
ENCODING 45
SWIDTH 667 0
DWIDTH 9 0
BBX 7 1 1 4
BITMAP
FE
ENDCHAR

STARTCHAR period
ENCODING 46
SWIDTH 312 0
DWIDTH 4 0
BBX 2 1 1 0
BITMAP
C0
ENDCHAR

STARTCHAR slash
ENCODING 47
SWIDTH 281 0
DWIDTH 4 0
BBX 5 9 0 0
BITMAP
08
08
10
10
20
40
40
80
80
ENDCHAR

STARTCHAR zero
ENCODING 48
SWIDTH 521 0
DWIDTH 7 0
BBX 6 9 1 0
BITMAP
18
24
44
44
84
88
88
90
60
ENDCHAR

STARTCHAR one
ENCODING 49
SWIDTH 521 0
DWIDTH 7 0
BBX 4 9 2 0
BITMAP
10
30
10
20
20
20
40
40
E0
ENDCHAR

STARTCHAR two
ENCODING 50
SWIDTH 521 0
DWIDTH 7 0
BBX 6 9 1 0
BITMAP
38
44
04
04
08
10
20
48
F0
ENDCHAR

STARTCHAR three
ENCODING 51
SWIDTH 521 0
DWIDTH 7 0
BBX 6 9 1 0
BITMAP
18
24
04
08
30
08
08
90
60
ENDCHAR

STARTCHAR four
ENCODING 52
SWIDTH 521 0
DWIDTH 7 0
BBX 7 9 0 0
BITMAP
02
06
0A
12
24
44
FE
08
08
ENDCHAR

STARTCHAR five
ENCODING 53
SWIDTH 521 0
DWIDTH 7 0
BBX 7 9 0 0
BITMAP
1E
10
20
38
04
04
04
88
70
ENDCHAR

STARTCHAR six
ENCODING 54
SWIDTH 521 0
DWIDTH 7 0
BBX 6 9 1 0
BITMAP
1C
20
40
70
88
88
88
90
60
ENDCHAR

STARTCHAR seven
ENCODING 55
SWIDTH 521 0
DWIDTH 7 0
BBX 6 9 1 0
BITMAP
FC
88
10
10
20
20
40
40
40
ENDCHAR

STARTCHAR eight
ENCODING 56
SWIDTH 521 0
DWIDTH 7 0
BBX 6 9 1 0
BITMAP
38
44
44
48
30
48
88
88
70
ENDCHAR

STARTCHAR nine
ENCODING 57
SWIDTH 521 0
DWIDTH 7 0
BBX 6 9 1 0
BITMAP
18
24
44
44
44
38
08
10
E0
ENDCHAR

STARTCHAR colon
ENCODING 58
SWIDTH 312 0
DWIDTH 4 0
BBX 3 6 1 0
BITMAP
60
00
00
00
00
C0
ENDCHAR

STARTCHAR semicolon
ENCODING 59
SWIDTH 312 0
DWIDTH 4 0
BBX 4 8 0 -2
BITMAP
30
00
00
00
00
60
20
C0
ENDCHAR

STARTCHAR less
ENCODING 60
SWIDTH 667 0
DWIDTH 9 0
BBX 7 5 1 2
BITMAP
06
38
C0
38
06
ENDCHAR

STARTCHAR equal
ENCODING 61
SWIDTH 667 0
DWIDTH 9 0
BBX 7 3 1 3
BITMAP
FE
00
FE
ENDCHAR

STARTCHAR greater
ENCODING 62
SWIDTH 667 0
DWIDTH 9 0
BBX 7 5 1 2
BITMAP
C0
38
06
38
C0
ENDCHAR

STARTCHAR question
ENCODING 63
SWIDTH 406 0
DWIDTH 5 0
BBX 5 9 0 0
BITMAP
30
48
08
08
70
40
00
80
80
ENDCHAR

STARTCHAR at
ENCODING 64
SWIDTH 917 0
DWIDTH 12 0
BBX 11 12 1 -3
BITMAP
0780
1840
2020
4720
4920
9920
9220
96C0
5B20
4040
3180
0E00
ENDCHAR

STARTCHAR A
ENCODING 65
SWIDTH 729 0
DWIDTH 9 0
BBX 9 9 0 0
BITMAP
0100
0300
0500
0900
0900
1F00
2100
4100
E380
ENDCHAR

STARTCHAR B
ENCODING 66
SWIDTH 698 0
DWIDTH 9 0
BBX 8 9 1 0
BITMAP
7E
21
21
22
3C
42
42
44
F8
ENDCHAR

STARTCHAR C
ENCODING 67
SWIDTH 708 0
DWIDTH 9 0
BBX 8 9 1 0
BITMAP
1F
21
40
80
80
80
82
44
38
ENDCHAR

STARTCHAR D
ENCODING 68
SWIDTH 781 0
DWIDTH 10 0
BBX 9 9 1 0
BITMAP
7E00
2100
2080
2080
2080
4080
4100
4200
FC00
ENDCHAR

STARTCHAR E
ENCODING 69
SWIDTH 656 0
DWIDTH 9 0
BBX 8 9 1 0
BITMAP
7F
21
20
24
3C
44
40
42
FE
ENDCHAR

STARTCHAR F
ENCODING 70
SWIDTH 635 0
DWIDTH 8 0
BBX 8 9 1 0
BITMAP
7F
21
20
24
3C
44
40
40
E0
ENDCHAR

STARTCHAR G
ENCODING 71
SWIDTH 792 0
DWIDTH 10 0
BBX 9 9 1 0
BITMAP
1F80
2080
4000
8000
8700
8200
8200
4200
3C00
ENDCHAR

STARTCHAR H
ENCODING 72
SWIDTH 823 0
DWIDTH 11 0
BBX 10 9 1 0
BITMAP
71C0
2080
2080
2080
3F80
4100
4100
4100
E380
ENDCHAR

STARTCHAR I
ENCODING 73
SWIDTH 375 0
DWIDTH 5 0
BBX 4 9 1 0
BITMAP
70
20
20
20
20
40
40
40
E0
ENDCHAR

STARTCHAR J
ENCODING 74
SWIDTH 479 0
DWIDTH 6 0
BBX 8 12 -1 -3
BITMAP
19
2E
24
04
1E
04
04
08
08
08
90
60
ENDCHAR

STARTCHAR K
ENCODING 75
SWIDTH 771 0
DWIDTH 10 0
BBX 9 9 1 0
BITMAP
7780
2200
2400
2800
3000
2800
4400
4200
E700
ENDCHAR

STARTCHAR L
ENCODING 76
SWIDTH 646 0
DWIDTH 8 0
BBX 7 9 1 0
BITMAP
70
20
20
20
20
40
40
42
FE
ENDCHAR

STARTCHAR M
ENCODING 77
SWIDTH 979 0
DWIDTH 13 0
BBX 12 9 1 0
BITMAP
3870
1860
18A0
2920
2920
2A40
4640
4440
E4E0
ENDCHAR

STARTCHAR N
ENCODING 78
SWIDTH 812 0
DWIDTH 11 0
BBX 10 9 1 0
BITMAP
61C0
3080
3080
2880
2500
4500
4300
4300
E100
ENDCHAR

STARTCHAR O
ENCODING 79
SWIDTH 792 0
DWIDTH 10 0
BBX 9 9 1 0
BITMAP
1E00
2100
4080
4080
8080
8100
8100
4200
3C00
ENDCHAR

STARTCHAR P
ENCODING 80
SWIDTH 615 0
DWIDTH 8 0
BBX 8 9 1 0
BITMAP
7E
21
21
21
2E
40
40
40
E0
ENDCHAR

STARTCHAR Q
ENCODING 81
SWIDTH 792 0
DWIDTH 10 0
BBX 9 12 1 -3
BITMAP
1E00
2100
4080
4080
8080
8100
8100
4200
3C00
1800
7080
8F00
ENDCHAR

STARTCHAR R
ENCODING 82
SWIDTH 698 0
DWIDTH 9 0
BBX 8 9 1 0
BITMAP
7E
21
21
22
3C
48
44
42
E7
ENDCHAR

STARTCHAR S
ENCODING 83
SWIDTH 604 0
DWIDTH 8 0
BBX 7 9 1 0
BITMAP
1E
22
40
40
38
04
04
88
F0
ENDCHAR

STARTCHAR T
ENCODING 84
SWIDTH 667 0
DWIDTH 9 0
BBX 9 9 1 0
BITMAP
FF80
8880
0800
0800
0800
1000
1000
1000
3800
ENDCHAR

STARTCHAR U
ENCODING 85
SWIDTH 771 0
DWIDTH 10 0
BBX 9 9 2 0
BITMAP
E380
4100
4100
4100
8200
8200
8200
8400
7800
ENDCHAR

STARTCHAR V
ENCODING 86
SWIDTH 719 0
DWIDTH 9 0
BBX 9 9 1 0
BITMAP
E380
4100
4200
4400
4800
5000
6000
6000
4000
ENDCHAR

STARTCHAR W
ENCODING 87
SWIDTH 979 0
DWIDTH 12 0
BBX 13 9 1 0
BITMAP
E538
4610
4620
4440
4C80
5500
6600
6600
4400
ENDCHAR

STARTCHAR X
ENCODING 88
SWIDTH 781 0
DWIDTH 9 0
BBX 10 9 0 0
BITMAP
39C0
1080
1100
0A00
0C00
1400
2200
4200
E700
ENDCHAR

STARTCHAR Y
ENCODING 89
SWIDTH 719 0
DWIDTH 8 0
BBX 8 9 1 0
BITMAP
E7
42
44
28
30
30
20
20
70
ENDCHAR

STARTCHAR Z
ENCODING 90
SWIDTH 625 0
DWIDTH 8 0
BBX 9 9 0 0
BITMAP
1F80
2100
0200
0400
0800
1000
2000
4200
FC00
ENDCHAR

STARTCHAR bracketleft
ENCODING 91
SWIDTH 375 0
DWIDTH 5 0
BBX 4 12 1 -3
BITMAP
30
20
20
20
40
40
40
40
80
80
80
C0
ENDCHAR

STARTCHAR backslash
ENCODING 92
SWIDTH 281 0
DWIDTH 4 0
BBX 2 9 1 0
BITMAP
80
80
80
80
80
40
40
40
40
ENDCHAR

STARTCHAR bracketright
ENCODING 93
SWIDTH 375 0
DWIDTH 5 0
BBX 4 12 1 -3
BITMAP
30
10
10
10
20
20
20
20
40
40
40
C0
ENDCHAR

STARTCHAR asciicircum
ENCODING 94
SWIDTH 427 0
DWIDTH 6 0
BBX 6 5 0 4
BITMAP
30
30
48
84
84
ENDCHAR

STARTCHAR underscore
ENCODING 95
SWIDTH 500 0
DWIDTH 7 0
BBX 7 1 0 -2
BITMAP
FE
ENDCHAR

STARTCHAR quoteleft
ENCODING 96
SWIDTH 312 0
DWIDTH 4 0
BBX 3 3 1 6
BITMAP
60
80
C0
ENDCHAR

STARTCHAR a
ENCODING 97
SWIDTH 521 0
DWIDTH 7 0
BBX 7 6 1 0
BITMAP
1A
26
44
88
9A
6C
ENDCHAR

STARTCHAR b
ENCODING 98
SWIDTH 469 0
DWIDTH 6 0
BBX 5 9 1 0
BITMAP
20
60
20
30
48
48
88
90
60
ENDCHAR

STARTCHAR c
ENCODING 99
SWIDTH 385 0
DWIDTH 5 0
BBX 5 6 1 0
BITMAP
38
48
80
80
90
60
ENDCHAR

STARTCHAR d
ENCODING 100
SWIDTH 500 0
DWIDTH 7 0
BBX 7 9 1 0
BITMAP
02
06
02
34
4C
84
88
9A
6C
ENDCHAR

STARTCHAR e
ENCODING 101
SWIDTH 385 0
DWIDTH 5 0
BBX 5 6 1 0
BITMAP
38
48
F0
80
90
60
ENDCHAR

STARTCHAR f
ENCODING 102
SWIDTH 281 0
DWIDTH 4 0
BBX 8 12 -2 -3
BITMAP
03
04
04
1E
08
08
08
08
10
10
90
60
ENDCHAR

STARTCHAR g
ENCODING 103
SWIDTH 448 0
DWIDTH 6 0
BBX 7 9 0 -3
BITMAP
1A
24
24
38
40
70
88
88
70
ENDCHAR

STARTCHAR h
ENCODING 104
SWIDTH 521 0
DWIDTH 7 0
BBX 7 9 1 0
BITMAP
20
60
20
58
64
44
88
8A
8C
ENDCHAR

STARTCHAR i
ENCODING 105
SWIDTH 271 0
DWIDTH 4 0
BBX 4 9 1 0
BITMAP
10
00
00
60
A0
20
40
50
60
ENDCHAR

STARTCHAR j
ENCODING 106
SWIDTH 240 0
DWIDTH 3 0
BBX 6 12 -2 -3
BITMAP
04
00
00
18
28
08
08
10
10
10
20
C0
ENDCHAR

STARTCHAR k
ENCODING 107
SWIDTH 521 0
DWIDTH 7 0
BBX 6 9 1 0
BITMAP
20
60
20
38
44
48
70
94
88
ENDCHAR

STARTCHAR l
ENCODING 108
SWIDTH 240 0
DWIDTH 3 0
BBX 3 9 1 0
BITMAP
20
60
20
40
40
40
80
A0
C0
ENDCHAR

STARTCHAR m
ENCODING 109
SWIDTH 771 0
DWIDTH 10 0
BBX 10 6 1 0
BITMAP
6D80
B680
2480
2500
4940
4980
ENDCHAR

STARTCHAR n
ENCODING 110
SWIDTH 531 0
DWIDTH 7 0
BBX 8 6 0 0
BITMAP
6E
B2
22
24
45
46
ENDCHAR

STARTCHAR o
ENCODING 111
SWIDTH 448 0
DWIDTH 6 0
BBX 5 6 1 0
BITMAP
30
48
88
88
90
60
ENDCHAR

STARTCHAR p
ENCODING 112
SWIDTH 490 0
DWIDTH 6 0
BBX 7 10 -1 -3
BITMAP
10
1C
72
22
22
24
38
40
40
E0
ENDCHAR

STARTCHAR q
ENCODING 113
SWIDTH 448 0
DWIDTH 6 0
BBX 5 9 1 -3
BITMAP
38
48
88
90
B0
50
20
20
70
ENDCHAR

STARTCHAR r
ENCODING 114
SWIDTH 344 0
DWIDTH 4 0
BBX 5 6 0 0
BITMAP
68
B0
20
20
40
40
ENDCHAR

STARTCHAR s
ENCODING 115
SWIDTH 333 0
DWIDTH 4 0
BBX 5 6 0 0
BITMAP
38
48
60
10
90
E0
ENDCHAR

STARTCHAR t
ENCODING 116
SWIDTH 292 0
DWIDTH 4 0
BBX 4 8 1 0
BITMAP
20
20
F0
40
40
80
A0
C0
ENDCHAR

STARTCHAR u
ENCODING 117
SWIDTH 531 0
DWIDTH 7 0
BBX 8 6 0 0
BITMAP
62
A2
24
44
4D
76
ENDCHAR

STARTCHAR v
ENCODING 118
SWIDTH 521 0
DWIDTH 7 0
BBX 6 6 1 0
BITMAP
68
A4
24
44
48
30
ENDCHAR

STARTCHAR w
ENCODING 119
SWIDTH 688 0
DWIDTH 9 0
BBX 9 6 0 0
BITMAP
6500
A480
2480
4880
4900
3600
ENDCHAR

STARTCHAR x
ENCODING 120
SWIDTH 490 0
DWIDTH 6 0
BBX 6 6 1 0
BITMAP
64
A8
10
30
54
98
ENDCHAR

STARTCHAR y
ENCODING 121
SWIDTH 479 0
DWIDTH 6 0
BBX 6 9 0 -3
BITMAP
68
A4
24
24
14
08
08
90
60
ENDCHAR

STARTCHAR z
ENCODING 122
SWIDTH 490 0
DWIDTH 6 0
BBX 7 6 0 0
BITMAP
3A
44
18
20
44
B8
ENDCHAR

STARTCHAR braceleft
ENCODING 123
SWIDTH 479 0
DWIDTH 6 0
BBX 5 12 2 -3
BITMAP
18
20
20
20
20
C0
40
40
40
80
80
40
ENDCHAR

STARTCHAR bar
ENCODING 124
SWIDTH 198 0
DWIDTH 3 0
BBX 1 12 1 -3
BITMAP
80
80
80
80
80
80
80
80
80
80
80
80
ENDCHAR

STARTCHAR braceright
ENCODING 125
SWIDTH 479 0
DWIDTH 6 0
BBX 5 12 0 -3
BITMAP
10
08
08
10
10
10
18
20
20
20
20
C0
ENDCHAR

STARTCHAR asciitilde
ENCODING 126
SWIDTH 542 0
DWIDTH 7 0
BBX 7 2 0 3
BITMAP
72
9C
ENDCHAR

STARTCHAR space
ENCODING 160
SWIDTH 250 0
DWIDTH 4 0
BBX 0 0 0 0
BITMAP
ENDCHAR

STARTCHAR afii10023
ENCODING 161
SWIDTH 656 0
DWIDTH 9 0
BBX 8 11 1 0
BITMAP
12
00
7F
21
20
24
3C
44
40
42
FE
ENDCHAR

STARTCHAR afii10051
ENCODING 162
SWIDTH 771 0
DWIDTH 10 0
BBX 9 9 0 0
BITMAP
FF80
8880
0800
0B00
0C80
1080
1080
1280
3B00
ENDCHAR

STARTCHAR afii10052
ENCODING 163
SWIDTH 563 0
DWIDTH 7 0
BBX 7 12 1 0
BITMAP
04
08
00
7E
22
22
20
20
40
40
40
E0
ENDCHAR

STARTCHAR afii10053
ENCODING 164
SWIDTH 708 0
DWIDTH 9 0
BBX 8 9 1 0
BITMAP
1E
21
41
40
7C
80
80
42
3C
ENDCHAR

STARTCHAR afii10054
ENCODING 165
SWIDTH 604 0
DWIDTH 8 0
BBX 7 9 1 0
BITMAP
1E
22
40
40
38
04
04
88
F0
ENDCHAR

STARTCHAR afii10055
ENCODING 166
SWIDTH 375 0
DWIDTH 5 0
BBX 4 9 1 0
BITMAP
70
20
20
20
20
40
40
40
E0
ENDCHAR

STARTCHAR afii10056
ENCODING 167
SWIDTH 375 0
DWIDTH 5 0
BBX 5 11 1 0
BITMAP
48
00
70
20
20
20
20
40
40
40
E0
ENDCHAR

STARTCHAR afii10057
ENCODING 168
SWIDTH 479 0
DWIDTH 6 0
BBX 8 12 -1 -3
BITMAP
19
2E
24
04
1E
04
04
08
08
08
90
60
ENDCHAR

STARTCHAR afii10058
ENCODING 169
SWIDTH 927 0
DWIDTH 12 0
BBX 12 9 0 0
BITMAP
3F80
1100
1100
1100
11E0
2210
2210
2220
C7C0
ENDCHAR

STARTCHAR afii10059
ENCODING 170
SWIDTH 970 0
DWIDTH 13 0
BBX 12 9 1 0
BITMAP
7380
2100
2100
2100
3FE0
4210
4210
4220
E7C0
ENDCHAR

STARTCHAR afii10060
ENCODING 171
SWIDTH 802 0
DWIDTH 10 0
BBX 8 9 1 0
BITMAP
FE
92
10
16
19
21
22
22
77
ENDCHAR

STARTCHAR afii10061
ENCODING 172
SWIDTH 708 0
DWIDTH 10 0
BBX 9 12 1 0
BITMAP
0200
0400
0000
7180
2200
2200
2400
3800
2800
4400
4200
E300
ENDCHAR

STARTCHAR hyphen
ENCODING 173
SWIDTH 365 0
DWIDTH 5 0
BBX 5 1 0 3
BITMAP
F8
ENDCHAR

STARTCHAR afii10062
ENCODING 174
SWIDTH 688 0
DWIDTH 9 0
BBX 10 12 1 0
BITMAP
1100
0E00
0000
73C0
2180
2100
1200
1400
1800
1000
A000
C000
ENDCHAR

STARTCHAR afii10145
ENCODING 175
SWIDTH 813 0
DWIDTH 11 0
BBX 10 11 1 -2
BITMAP
71C0
2080
2080
2080
2080
4100
4100
4100
FF80
0800
0800
ENDCHAR

STARTCHAR afii10017
ENCODING 176
SWIDTH 729 0
DWIDTH 9 0
BBX 9 9 0 0
BITMAP
0100
0300
0500
0900
0900
1F00
2100
4100
E380
ENDCHAR

STARTCHAR afii10018
ENCODING 177
SWIDTH 688 0
DWIDTH 9 0
BBX 8 9 1 0
BITMAP
7F
21
20
20
3C
42
42
44
F8
ENDCHAR

STARTCHAR afii10019
ENCODING 178
SWIDTH 698 0
DWIDTH 9 0
BBX 8 9 1 0
BITMAP
7E
21
21
22
3C
42
42
44
F8
ENDCHAR

STARTCHAR afii10020
ENCODING 179
SWIDTH 563 0
DWIDTH 7 0
BBX 7 9 1 0
BITMAP
7E
22
22
20
20
40
40
40
E0
ENDCHAR

STARTCHAR afii10021
ENCODING 180
SWIDTH 677 0
DWIDTH 11 0
BBX 11 11 0 -2
BITMAP
1FE0
0840
0840
1040
1080
1080
1080
2080
7FC0
8040
8040
ENDCHAR

STARTCHAR afii10022
ENCODING 181
SWIDTH 656 0
DWIDTH 9 0
BBX 8 9 1 0
BITMAP
7F
21
20
24
3C
44
40
42
FE
ENDCHAR

STARTCHAR afii10024
ENCODING 182
SWIDTH 969 0
DWIDTH 13 0
BBX 14 9 0 0
BITMAP
338C
0910
0910
0920
07C0
0A40
1220
2220
E738
ENDCHAR

STARTCHAR afii10025
ENCODING 183
SWIDTH 569 0
DWIDTH 7 0
BBX 7 9 0 0
BITMAP
1C
22
02
04
18
04
04
88
70
ENDCHAR

STARTCHAR afii10026
ENCODING 184
SWIDTH 813 0
DWIDTH 11 0
BBX 10 9 1 0
BITMAP
73C0
2180
2280
2480
2880
5100
6100
4100
E380
ENDCHAR

STARTCHAR afii10027
ENCODING 185
SWIDTH 813 0
DWIDTH 11 0
BBX 10 12 1 0
BITMAP
1100
0E00
0000
73C0
2180
2280
2480
2900
5100
6100
4100
E380
ENDCHAR

STARTCHAR afii10028
ENCODING 186
SWIDTH 708 0
DWIDTH 10 0
BBX 9 9 1 0
BITMAP
7180
2200
2200
2400
3800
2800
4400
4200
E300
ENDCHAR

STARTCHAR afii10029
ENCODING 187
SWIDTH 718 0
DWIDTH 9 0
BBX 9 9 0 0
BITMAP
3F80
1100
1100
1100
1100
2200
2200
2200
C700
ENDCHAR

STARTCHAR afii10030
ENCODING 188
SWIDTH 979 0
DWIDTH 13 0
BBX 12 9 1 0
BITMAP
3870
1860
18A0
2920
2920
2A40
4640
4440
E4E0
ENDCHAR

STARTCHAR afii10031
ENCODING 189
SWIDTH 823 0
DWIDTH 11 0
BBX 10 9 1 0
BITMAP
71C0
2080
2080
2080
3F80
4100
4100
4100
E380
ENDCHAR

STARTCHAR afii10032
ENCODING 190
SWIDTH 792 0
DWIDTH 10 0
BBX 9 9 1 0
BITMAP
1E00
2100
4080
4080
8080
8100
8100
4200
3C00
ENDCHAR

STARTCHAR afii10033
ENCODING 191
SWIDTH 813 0
DWIDTH 11 0
BBX 10 9 1 0
BITMAP
7FC0
2080
2080
2080
2080
4100
4100
4100
E380
ENDCHAR

STARTCHAR afii10034
ENCODING 192
SWIDTH 615 0
DWIDTH 8 0
BBX 8 9 1 0
BITMAP
7E
21
21
21
2E
40
40
40
E0
ENDCHAR

STARTCHAR afii10035
ENCODING 193
SWIDTH 708 0
DWIDTH 9 0
BBX 8 9 1 0
BITMAP
1F
21
40
80
80
80
82
44
38
ENDCHAR

STARTCHAR afii10036
ENCODING 194
SWIDTH 667 0
DWIDTH 9 0
BBX 9 9 1 0
BITMAP
FF80
8880
0800
0800
0800
1000
1000
1000
3800
ENDCHAR

STARTCHAR afii10037
ENCODING 195
SWIDTH 688 0
DWIDTH 9 0
BBX 10 9 1 0
BITMAP
73C0
2180
2100
1200
1400
1800
1000
A000
C000
ENDCHAR

STARTCHAR afii10038
ENCODING 196
SWIDTH 917 0
DWIDTH 11 0
BBX 10 9 1 0
BITMAP
0E00
0400
7F80
8440
8840
8840
7F80
0800
1C00
ENDCHAR

STARTCHAR afii10039
ENCODING 197
SWIDTH 781 0
DWIDTH 9 0
BBX 10 9 0 0
BITMAP
39C0
1080
1100
0A00
0C00
1400
2200
4200
E700
ENDCHAR

STARTCHAR afii10040
ENCODING 198
SWIDTH 813 0
DWIDTH 11 0
BBX 10 11 1 -2
BITMAP
71C0
2080
2080
2080
2080
4100
4100
4100
FF80
0080
0080
ENDCHAR

STARTCHAR afii10041
ENCODING 199
SWIDTH 771 0
DWIDTH 10 0
BBX 9 9 1 0
BITMAP
E380
4100
8100
8200
8600
7A00
0400
0400
0E00
ENDCHAR

STARTCHAR afii10042
ENCODING 200
SWIDTH 1000 0
DWIDTH 13 0
BBX 12 9 1 0
BITMAP
7770
2220
2220
2220
2220
4440
4440
4440
FFE0
ENDCHAR

STARTCHAR afii10043
ENCODING 201
SWIDTH 1000 0
DWIDTH 13 0
BBX 12 11 1 -2
BITMAP
7770
2220
2220
2220
2220
4440
4440
4440
FFE0
0020
0020
ENDCHAR

STARTCHAR afii10044
ENCODING 202
SWIDTH 741 0
DWIDTH 8 0
BBX 8 9 0 0
BITMAP
F8
90
10
10
1E
21
21
22
7C
ENDCHAR

STARTCHAR afii10045
ENCODING 203
SWIDTH 979 0
DWIDTH 13 0
BBX 12 9 1 0
BITMAP
7070
2020
2020
2020
3C20
4240
4240
4440
F8E0
ENDCHAR

STARTCHAR afii10046
ENCODING 204
SWIDTH 642 0
DWIDTH 8 0
BBX 7 9 1 0
BITMAP
70
20
20
20
3C
42
42
44
F8
ENDCHAR

STARTCHAR afii10047
ENCODING 205
SWIDTH 708 0
DWIDTH 9 0
BBX 8 9 1 0
BITMAP
3C
42
41
01
1E
02
02
84
78
ENDCHAR

STARTCHAR afii10048
ENCODING 206
SWIDTH 1135 0
DWIDTH 15 0
BBX 14 9 1 0
BITMAP
70F0
2108
2204
2204
3C04
4408
4408
4210
E1E0
ENDCHAR

STARTCHAR afii10049
ENCODING 207
SWIDTH 698 0
DWIDTH 9 0
BBX 9 9 0 0
BITMAP
1F80
2100
2100
1100
0F00
1200
2200
4200
E700
ENDCHAR

STARTCHAR afii10065
ENCODING 208
SWIDTH 521 0
DWIDTH 7 0
BBX 7 6 1 0
BITMAP
1A
26
44
88
9A
6C
ENDCHAR

STARTCHAR afii10066
ENCODING 209
SWIDTH 448 0
DWIDTH 6 0
BBX 6 9 1 0
BITMAP
1C
20
40
70
48
88
88
90
60
ENDCHAR

STARTCHAR afii10067
ENCODING 210
SWIDTH 385 0
DWIDTH 5 0
BBX 4 6 1 0
BITMAP
20
50
D0
A0
90
60
ENDCHAR

STARTCHAR afii10068
ENCODING 211
SWIDTH 302 0
DWIDTH 4 0
BBX 4 6 1 0
BITMAP
60
10
20
40
80
60
ENDCHAR

STARTCHAR afii10069
ENCODING 212
SWIDTH 449 0
DWIDTH 6 0
BBX 5 9 1 0
BITMAP
30
08
08
38
48
88
88
90
60
ENDCHAR

STARTCHAR afii10070
ENCODING 213
SWIDTH 385 0
DWIDTH 5 0
BBX 5 6 1 0
BITMAP
38
48
F0
80
90
60
ENDCHAR

STARTCHAR afii10072
ENCODING 214
SWIDTH 875 0
DWIDTH 12 0
BBX 11 6 1 0
BITMAP
6260
94A0
1F00
1500
A920
C8C0
ENDCHAR

STARTCHAR afii10073
ENCODING 215
SWIDTH 365 0
DWIDTH 5 0
BBX 5 6 0 0
BITMAP
30
08
70
10
90
60
ENDCHAR

STARTCHAR afii10074
ENCODING 216
SWIDTH 531 0
DWIDTH 7 0
BBX 8 6 0 0
BITMAP
62
A2
24
44
4D
76
ENDCHAR

STARTCHAR afii10075
ENCODING 217
SWIDTH 531 0
DWIDTH 7 0
BBX 8 9 0 0
BITMAP
22
1C
00
62
A2
24
44
4D
76
ENDCHAR

STARTCHAR afii10076
ENCODING 218
SWIDTH 489 0
DWIDTH 6 0
BBX 6 6 1 0
BITMAP
CC
50
60
90
90
98
ENDCHAR

STARTCHAR afii10077
ENCODING 219
SWIDTH 490 0
DWIDTH 6 0
BBX 7 6 0 0
BITMAP
0E
14
24
28
4A
CC
ENDCHAR

STARTCHAR afii10078
ENCODING 220
SWIDTH 586 0
DWIDTH 8 0
BBX 9 6 0 0
BITMAP
1200
3600
3600
5A00
5280
9300
ENDCHAR

STARTCHAR afii10079
ENCODING 221
SWIDTH 525 0
DWIDTH 7 0
BBX 6 6 1 0
BITMAP
C8
48
48
70
94
98
ENDCHAR

STARTCHAR afii10080
ENCODING 222
SWIDTH 448 0
DWIDTH 6 0
BBX 5 6 1 0
BITMAP
30
48
88
88
90
60
ENDCHAR

STARTCHAR afii10081
ENCODING 223
SWIDTH 531 0
DWIDTH 7 0
BBX 8 6 0 0
BITMAP
6E
B2
22
24
45
46
ENDCHAR

STARTCHAR afii10082
ENCODING 224
SWIDTH 490 0
DWIDTH 6 0
BBX 7 10 -1 -3
BITMAP
10
1C
72
22
22
24
38
40
40
E0
ENDCHAR

STARTCHAR afii10083
ENCODING 225
SWIDTH 385 0
DWIDTH 5 0
BBX 5 6 1 0
BITMAP
38
48
80
80
90
60
ENDCHAR

STARTCHAR afii10084
ENCODING 226
SWIDTH 771 0
DWIDTH 10 0
BBX 10 6 1 0
BITMAP
6D80
B680
2480
2500
4940
4980
ENDCHAR

STARTCHAR afii10085
ENCODING 227
SWIDTH 479 0
DWIDTH 6 0
BBX 6 9 0 -3
BITMAP
68
A4
24
24
14
08
08
90
60
ENDCHAR

STARTCHAR afii10086
ENCODING 228
SWIDTH 625 0
DWIDTH 8 0
BBX 7 12 1 -3
BITMAP
06
08
08
2C
52
92
92
94
68
20
20
C0
ENDCHAR

STARTCHAR afii10087
ENCODING 229
SWIDTH 490 0
DWIDTH 6 0
BBX 6 6 1 0
BITMAP
64
A8
10
30
54
98
ENDCHAR

STARTCHAR afii10088
ENCODING 230
SWIDTH 521 0
DWIDTH 7 0
BBX 8 8 0 -2
BITMAP
62
A2
24
44
4D
76
04
08
ENDCHAR

STARTCHAR afii10089
ENCODING 231
SWIDTH 490 0
DWIDTH 6 0
BBX 6 6 1 0
BITMAP
C8
48
88
70
14
18
ENDCHAR

STARTCHAR afii10090
ENCODING 232
SWIDTH 792 0
DWIDTH 10 0
BBX 9 6 1 0
BITMAP
6480
A480
2900
4900
5B00
6D80
ENDCHAR

STARTCHAR afii10091
ENCODING 233
SWIDTH 792 0
DWIDTH 10 0
BBX 9 8 1 -2
BITMAP
6480
A480
2900
4900
5B00
6D80
0100
0200
ENDCHAR

STARTCHAR afii10092
ENCODING 234
SWIDTH 396 0
DWIDTH 5 0
BBX 5 6 0 0
BITMAP
70
90
30
48
48
70
ENDCHAR

STARTCHAR afii10093
ENCODING 235
SWIDTH 624 0
DWIDTH 8 0
BBX 8 6 1 0
BITMAP
C6
42
62
94
95
E6
ENDCHAR

STARTCHAR afii10094
ENCODING 236
SWIDTH 406 0
DWIDTH 5 0
BBX 4 6 1 0
BITMAP
C0
40
60
90
90
E0
ENDCHAR

STARTCHAR afii10095
ENCODING 237
SWIDTH 396 0
DWIDTH 5 0
BBX 5 6 0 0
BITMAP
70
08
38
08
90
60
ENDCHAR

STARTCHAR afii10096
ENCODING 238
SWIDTH 667 0
DWIDTH 9 0
BBX 8 6 1 0
BITMAP
C6
49
51
71
92
8C
ENDCHAR

STARTCHAR afii10097
ENCODING 239
SWIDTH 542 0
DWIDTH 7 0
BBX 8 6 0 0
BITMAP
1E
22
24
1C
25
C6
ENDCHAR

STARTCHAR afii61352
ENCODING 240
SWIDTH 1031 0
DWIDTH 13 0
BBX 13 9 0 0
BITMAP
1860
0880
0C90
14A8
1548
1550
2220
2200
C2F0
ENDCHAR

STARTCHAR afii10071
ENCODING 241
SWIDTH 385 0
DWIDTH 5 0
BBX 6 8 1 0
BITMAP
24
00
38
48
F0
80
90
60
ENDCHAR

STARTCHAR afii10099
ENCODING 242
SWIDTH 510 0
DWIDTH 7 0
BBX 6 12 1 -3
BITMAP
20
78
20
58
64
44
84
88
88
08
08
10
ENDCHAR

STARTCHAR afii10100
ENCODING 243
SWIDTH 448 0
DWIDTH 5 0
BBX 6 10 0 0
BITMAP
08
10
00
7C
24
20
20
40
40
E0
ENDCHAR

STARTCHAR afii10101
ENCODING 244
SWIDTH 406 0
DWIDTH 5 0
BBX 5 6 1 0
BITMAP
38
40
F0
80
90
60
ENDCHAR

STARTCHAR afii10102
ENCODING 245
SWIDTH 333 0
DWIDTH 4 0
BBX 5 6 0 0
BITMAP
38
48
60
10
90
E0
ENDCHAR

STARTCHAR afii10103
ENCODING 246
SWIDTH 271 0
DWIDTH 4 0
BBX 4 9 1 0
BITMAP
10
00
00
60
A0
20
40
50
60
ENDCHAR

STARTCHAR afii10104
ENCODING 247
SWIDTH 271 0
DWIDTH 4 0
BBX 5 8 1 0
BITMAP
48
00
60
A0
20
40
50
60
ENDCHAR

STARTCHAR afii10105
ENCODING 248
SWIDTH 240 0
DWIDTH 3 0
BBX 6 12 -2 -3
BITMAP
04
00
00
18
28
08
08
10
10
10
20
C0
ENDCHAR

STARTCHAR afii10106
ENCODING 249
SWIDTH 663 0
DWIDTH 8 0
BBX 8 6 0 0
BITMAP
0C
14
26
29
49
CE
ENDCHAR

STARTCHAR afii10107
ENCODING 250
SWIDTH 691 0
DWIDTH 8 0
BBX 7 6 1 0
BITMAP
D8
48
7C
92
92
9C
ENDCHAR

STARTCHAR afii10108
ENCODING 251
SWIDTH 500 0
DWIDTH 7 0
BBX 7 9 1 0
BITMAP
20
78
20
58
64
44
88
8A
8C
ENDCHAR

STARTCHAR afii10109
ENCODING 252
SWIDTH 489 0
DWIDTH 6 0
BBX 6 9 1 0
BITMAP
10
20
00
CC
50
60
90
90
98
ENDCHAR

STARTCHAR section
ENCODING 253
SWIDTH 458 0
DWIDTH 6 0
BBX 7 12 0 -3
BITMAP
0E
12
10
30
28
28
28
28
18
10
90
E0
ENDCHAR

STARTCHAR afii10110
ENCODING 254
SWIDTH 479 0
DWIDTH 6 0
BBX 6 12 0 -3
BITMAP
44
38
00
68
A4
24
24
14
08
08
90
60
ENDCHAR

STARTCHAR afii10193
ENCODING 255
SWIDTH 531 0
DWIDTH 7 0
BBX 8 8 0 -2
BITMAP
62
A2
24
44
4D
76
40
80
ENDCHAR
ENDFONT
